<?xml version="1.0" encoding="UTF-8"?>
<svg xmlns="http://www.w3.org/2000/svg" xmlns:xlink="http://www.w3.org/1999/xlink" viewBox="0 0 80 80" width="80px" height="80px">
<g id="surface6445279">
<path style=" stroke:none;fill-rule:nonzero;fill:rgb(100%,100%,100%);fill-opacity:1;" d="M 40 7 C 21.785156 7 7 21.785156 7 40 C 7 58.214844 21.785156 73 40 73 C 58.214844 73 73 58.214844 73 40 C 73 21.785156 58.214844 7 40 7 Z M 40 9 C 57.132812 9 71 22.867188 71 40 C 71 57.132812 57.132812 71 40 71 C 36.824219 71 33.765625 70.519531 30.882812 69.636719 C 32.15625 67.546875 33.945312 64.304688 34.628906 61.679688 C 35.011719 60.214844 36.582031 54.246094 36.582031 54.246094 C 37.597656 56.191406 40.578125 57.835938 43.746094 57.835938 C 53.175781 57.835938 59.972656 49.164062 59.972656 38.386719 C 59.972656 28.054688 51.542969 20.324219 40.691406 20.324219 C 27.195312 20.324219 20.03125 29.382812 20.03125 39.246094 C 20.03125 43.835938 22.472656 49.542969 26.378906 51.363281 C 26.96875 51.640625 27.289062 51.519531 27.421875 50.945312 C 27.527344 50.511719 28.054688 48.386719 28.289062 47.402344 C 28.367188 47.085938 28.332031 46.8125 28.078125 46.503906 C 26.78125 44.933594 25.746094 42.050781 25.746094 39.367188 C 25.746094 32.46875 30.96875 25.792969 39.867188 25.792969 C 47.550781 25.792969 52.929688 31.03125 52.929688 38.519531 C 52.929688 46.976562 48.65625 52.839844 43.097656 52.839844 C 40.027344 52.839844 37.730469 50.296875 38.464844 47.183594 C 39.351562 43.46875 41.058594 39.457031 41.058594 36.773438 C 41.058594 34.371094 39.769531 32.367188 37.101562 32.367188 C 33.964844 32.367188 31.445312 35.613281 31.445312 39.960938 C 31.445312 42.730469 32.378906 44.601562 32.378906 44.601562 C 32.378906 44.601562 29.28125 57.710938 28.710938 60.148438 C 28.105469 62.75 28.316406 66.347656 28.574219 68.820312 C 17.105469 64.277344 9 53.097656 9 40 C 9 22.867188 22.867188 9 40 9 Z M 40 12 C 39.449219 12 39 12.449219 39 13 C 39 13.550781 39.449219 14 40 14 C 40.550781 14 41 13.550781 41 13 C 41 12.449219 40.550781 12 40 12 Z M 34.539062 12.535156 C 33.996094 12.644531 33.644531 13.171875 33.753906 13.710938 C 33.863281 14.253906 34.386719 14.609375 34.929688 14.5 C 35.472656 14.390625 35.824219 13.867188 35.714844 13.324219 C 35.605469 12.78125 35.082031 12.429688 34.539062 12.535156 Z M 45.464844 12.535156 C 44.921875 12.429688 44.394531 12.78125 44.289062 13.320312 C 44.179688 13.863281 44.53125 14.390625 45.074219 14.496094 C 45.613281 14.605469 46.140625 14.253906 46.25 13.710938 C 46.355469 13.171875 46.003906 12.644531 45.464844 12.535156 Z M 29.675781 14.054688 C 29.546875 14.054688 29.414062 14.078125 29.285156 14.132812 C 28.773438 14.34375 28.53125 14.925781 28.746094 15.4375 C 28.957031 15.949219 29.539062 16.191406 30.050781 15.980469 C 30.5625 15.765625 30.804688 15.183594 30.59375 14.671875 C 30.433594 14.289062 30.066406 14.058594 29.675781 14.054688 Z M 50.324219 14.054688 C 49.933594 14.058594 49.566406 14.289062 49.410156 14.671875 C 49.195312 15.183594 49.4375 15.765625 49.949219 15.980469 C 50.460938 16.191406 51.042969 15.949219 51.257812 15.4375 C 51.46875 14.925781 51.226562 14.34375 50.714844 14.132812 C 50.585938 14.078125 50.453125 14.054688 50.324219 14.054688 Z M 24.8125 16.566406 C 24.683594 16.589844 24.558594 16.640625 24.445312 16.714844 C 23.984375 17.023438 23.859375 17.644531 24.167969 18.105469 C 24.476562 18.5625 25.09375 18.6875 25.554688 18.382812 C 26.015625 18.074219 26.140625 17.453125 25.832031 16.996094 C 25.601562 16.648438 25.191406 16.492188 24.8125 16.566406 Z M 55.1875 16.566406 C 54.804688 16.492188 54.398438 16.648438 54.167969 16.992188 C 53.859375 17.453125 53.984375 18.074219 54.441406 18.378906 C 54.902344 18.6875 55.523438 18.566406 55.832031 18.105469 C 56.136719 17.644531 56.015625 17.023438 55.554688 16.714844 C 55.441406 16.640625 55.316406 16.589844 55.1875 16.566406 Z M 20.910156 19.910156 C 20.652344 19.910156 20.394531 20.007812 20.203125 20.203125 C 19.8125 20.589844 19.8125 21.226562 20.203125 21.613281 C 20.589844 22.003906 21.226562 22.003906 21.613281 21.613281 C 22.003906 21.226562 22.003906 20.589844 21.613281 20.203125 C 21.421875 20.007812 21.164062 19.90625 20.90625 19.910156 Z M 59.089844 19.910156 C 58.835938 19.910156 58.578125 20.007812 58.382812 20.203125 C 57.996094 20.589844 57.996094 21.226562 58.382812 21.613281 C 58.773438 22.003906 59.410156 22.003906 59.796875 21.613281 C 60.1875 21.226562 60.1875 20.589844 59.796875 20.203125 C 59.605469 20.007812 59.347656 19.90625 59.089844 19.910156 Z M 62.261719 24.015625 C 62.132812 24.039062 62.007812 24.089844 61.894531 24.164062 C 61.433594 24.472656 61.3125 25.09375 61.621094 25.550781 C 61.925781 26.011719 62.546875 26.136719 63.007812 25.828125 C 63.464844 25.519531 63.589844 24.902344 63.28125 24.441406 C 63.050781 24.097656 62.644531 23.941406 62.261719 24.015625 Z M 17.738281 24.015625 C 17.355469 23.945312 16.949219 24.097656 16.71875 24.441406 C 16.410156 24.902344 16.535156 25.523438 16.996094 25.832031 C 17.457031 26.136719 18.074219 26.015625 18.382812 25.554688 C 18.691406 25.09375 18.566406 24.476562 18.105469 24.167969 C 17.992188 24.089844 17.867188 24.042969 17.738281 24.015625 Z M 64.953125 28.664062 C 64.824219 28.664062 64.691406 28.6875 64.5625 28.742188 C 64.050781 28.953125 63.808594 29.539062 64.023438 30.046875 C 64.234375 30.558594 64.816406 30.800781 65.328125 30.589844 C 65.839844 30.378906 66.082031 29.792969 65.871094 29.28125 C 65.710938 28.902344 65.34375 28.667969 64.953125 28.664062 Z M 15.046875 28.667969 C 14.660156 28.671875 14.292969 28.902344 14.132812 29.285156 C 13.921875 29.796875 14.164062 30.378906 14.671875 30.589844 C 15.183594 30.804688 15.769531 30.5625 15.980469 30.050781 C 16.191406 29.539062 15.949219 28.957031 15.441406 28.742188 C 15.3125 28.691406 15.179688 28.667969 15.050781 28.667969 Z M 13.714844 33.753906 C 13.175781 33.644531 12.648438 33.996094 12.539062 34.539062 C 12.429688 35.078125 12.785156 35.605469 13.328125 35.714844 C 13.867188 35.824219 14.394531 35.46875 14.503906 34.929688 C 14.609375 34.386719 14.257812 33.859375 13.714844 33.753906 Z M 66.285156 33.753906 C 65.746094 33.859375 65.394531 34.386719 65.5 34.929688 C 65.609375 35.46875 66.136719 35.820312 66.675781 35.714844 C 67.21875 35.605469 67.570312 35.078125 67.460938 34.539062 C 67.355469 33.996094 66.828125 33.644531 66.285156 33.753906 Z M 13 39 C 12.449219 39 12 39.449219 12 40 C 12 40.550781 12.449219 41 13 41 C 13.550781 41 14 40.550781 14 40 C 14 39.449219 13.550781 39 13 39 Z M 67 39 C 66.449219 39 66 39.449219 66 40 C 66 40.550781 66.449219 41 67 41 C 67.550781 41 68 40.550781 68 40 C 68 39.449219 67.550781 39 67 39 Z M 13.324219 44.285156 C 12.78125 44.394531 12.429688 44.921875 12.539062 45.460938 C 12.648438 46.003906 13.171875 46.355469 13.714844 46.246094 C 14.257812 46.140625 14.609375 45.613281 14.5 45.070312 C 14.390625 44.53125 13.867188 44.179688 13.324219 44.285156 Z M 66.28125 44.285156 C 65.898438 44.367188 65.582031 44.664062 65.503906 45.070312 C 65.394531 45.613281 65.746094 46.140625 66.289062 46.246094 C 66.828125 46.355469 67.355469 46.003906 67.464844 45.460938 C 67.570312 44.921875 67.21875 44.394531 66.679688 44.285156 C 66.542969 44.261719 66.410156 44.261719 66.28125 44.285156 Z M 64.9375 49.332031 C 64.546875 49.332031 64.179688 49.566406 64.023438 49.945312 C 63.808594 50.457031 64.050781 51.042969 64.5625 51.253906 C 65.074219 51.464844 65.65625 51.222656 65.871094 50.714844 C 66.082031 50.203125 65.839844 49.617188 65.328125 49.40625 C 65.199219 49.351562 65.066406 49.328125 64.9375 49.332031 Z M 15.0625 49.332031 C 14.933594 49.332031 14.800781 49.355469 14.675781 49.410156 C 14.164062 49.621094 13.917969 50.203125 14.132812 50.714844 C 14.34375 51.226562 14.925781 51.46875 15.4375 51.257812 C 15.949219 51.042969 16.191406 50.460938 15.980469 49.949219 C 15.820312 49.566406 15.453125 49.335938 15.0625 49.332031 Z M 62.636719 54.015625 C 62.257812 53.941406 61.847656 54.097656 61.617188 54.441406 C 61.3125 54.902344 61.433594 55.519531 61.894531 55.828125 C 62.355469 56.136719 62.976562 56.011719 63.28125 55.554688 C 63.589844 55.09375 63.464844 54.472656 63.003906 54.167969 C 62.890625 54.089844 62.765625 54.039062 62.636719 54.015625 Z M 17.363281 54.015625 C 17.234375 54.042969 17.109375 54.089844 16.996094 54.167969 C 16.535156 54.476562 16.414062 55.09375 16.71875 55.554688 C 17.027344 56.015625 17.648438 56.136719 18.109375 55.832031 C 18.566406 55.523438 18.691406 54.902344 18.382812 54.441406 C 18.152344 54.097656 17.746094 53.945312 17.363281 54.015625 Z M 20.910156 58.089844 C 20.652344 58.09375 20.394531 58.191406 20.203125 58.382812 C 19.8125 58.773438 19.8125 59.410156 20.203125 59.796875 C 20.589844 60.1875 21.226562 60.1875 21.613281 59.796875 C 22.003906 59.410156 22.003906 58.773438 21.613281 58.382812 C 21.421875 58.191406 21.164062 58.089844 20.90625 58.089844 Z M 59.089844 58.089844 C 58.835938 58.09375 58.578125 58.191406 58.382812 58.382812 C 57.996094 58.773438 57.996094 59.410156 58.382812 59.796875 C 58.773438 60.1875 59.410156 60.1875 59.796875 59.796875 C 60.1875 59.410156 60.1875 58.773438 59.796875 58.382812 C 59.605469 58.191406 59.347656 58.089844 59.089844 58.089844 Z M 25.1875 61.464844 C 24.808594 61.390625 24.398438 61.546875 24.167969 61.890625 C 23.863281 62.351562 23.988281 62.972656 24.445312 63.28125 C 24.90625 63.585938 25.527344 63.464844 25.832031 63.003906 C 26.140625 62.542969 26.019531 61.925781 25.558594 61.617188 C 25.445312 61.539062 25.316406 61.488281 25.1875 61.464844 Z M 54.8125 61.464844 C 54.683594 61.488281 54.558594 61.539062 54.445312 61.613281 C 53.984375 61.921875 53.863281 62.542969 54.171875 63.003906 C 54.476562 63.464844 55.097656 63.585938 55.558594 63.277344 C 56.015625 62.972656 56.140625 62.351562 55.835938 61.890625 C 55.605469 61.546875 55.195312 61.390625 54.8125 61.464844 Z M 50.339844 63.941406 C 50.210938 63.941406 50.078125 63.964844 49.953125 64.019531 C 49.441406 64.230469 49.195312 64.816406 49.410156 65.328125 C 49.621094 65.835938 50.203125 66.078125 50.714844 65.867188 C 51.226562 65.65625 51.46875 65.070312 51.257812 64.558594 C 51.097656 64.179688 50.730469 63.945312 50.339844 63.941406 Z M 45.070312 65.5 C 44.53125 65.609375 44.179688 66.132812 44.285156 66.675781 C 44.394531 67.21875 44.921875 67.570312 45.460938 67.464844 C 46.003906 67.355469 46.359375 66.828125 46.25 66.289062 C 46.140625 65.746094 45.613281 65.390625 45.070312 65.5 Z M 40 66 C 39.449219 66 39 66.449219 39 67 C 39 67.550781 39.449219 68 40 68 C 40.550781 68 41 67.550781 41 67 C 41 66.449219 40.550781 66 40 66 Z M 40 66 "/>
</g>
</svg>
