<?xml version="1.0" encoding="UTF-8"?>
<svg xmlns="http://www.w3.org/2000/svg" xmlns:xlink="http://www.w3.org/1999/xlink" viewBox="0 0 30 30" width="30px" height="30px">
<g id="surface20231856">
<path style=" stroke:none;fill-rule:nonzero;fill:rgb(78.039217%,0.392157%,0.392157%);fill-opacity:1;" d="M 11 2 C 9.894531 2 9 2.894531 9 4 L 9 19.5 C 6.449219 18.199219 5.289062 18 4 18 C 2.503906 18 1.007812 18.578125 1 20.488281 L 5.5 22.5 L 8.65625 25.65625 C 10.15625 27.15625 12.191406 28 14.3125 28 L 21 28 C 23.210938 28 25 26.210938 25 24 L 25 14 C 25 12.894531 24.105469 12 23 12 C 22.226562 12 21.523438 12.449219 21.191406 13.148438 C 21.066406 13.0625 21 13 21 13 C 21 11.894531 20.105469 11 19 11 C 17.894531 11 17 11.894531 17 13 L 17 12 C 17 10.894531 16.105469 10 15 10 C 13.894531 10 13 10.894531 13 12 L 13 4 C 13 2.894531 12.105469 2 11 2 Z M 1 20.488281 L 1 20.5 C 1 20.496094 1 20.492188 1 20.488281 Z M 1 20.488281 "/>
</g>
</svg>
